<svg width="240" height="48" viewBox="0 0 240 48" fill="none" xmlns="http://www.w3.org/2000/svg">
  <!-- Target Icon -->
  <g id="target">
    <rect x="0" y="0" width="48" height="48" rx="12" fill="currentColor" opacity="0.1"/>
    <circle cx="24" cy="24" r="10" stroke="currentColor" stroke-width="2" fill="none"/>
    <circle cx="24" cy="24" r="6" stroke="currentColor" stroke-width="2" fill="none"/>
    <circle cx="24" cy="24" r="2" fill="currentColor"/>
  </g>
  
  <!-- Content Icon -->
  <g id="content">
    <rect x="48" y="0" width="48" height="48" rx="12" fill="currentColor" opacity="0.1"/>
    <rect x="58" y="16" width="28" height="2" rx="1" fill="currentColor"/>
    <rect x="58" y="22" width="20" height="2" rx="1" fill="currentColor" opacity="0.7"/>
    <rect x="58" y="28" width="24" height="2" rx="1" fill="currentColor" opacity="0.7"/>
    <rect x="58" y="34" width="18" height="2" rx="1" fill="currentColor" opacity="0.7"/>
  </g>
  
  <!-- AI Icon -->
  <g id="ai">
    <rect x="96" y="0" width="48" height="48" rx="12" fill="currentColor" opacity="0.1"/>
    <circle cx="116" cy="20" r="3" fill="currentColor"/>
    <circle cx="126" cy="20" r="3" fill="currentColor"/>
    <path d="M112 28 Q120 32 128 28" stroke="currentColor" stroke-width="2" fill="none"/>
    <rect x="113" y="30" width="14" height="2" rx="1" fill="currentColor" opacity="0.5"/>
  </g>
  
  <!-- Media Icon -->
  <g id="media">
    <rect x="144" y="0" width="48" height="48" rx="12" fill="currentColor" opacity="0.1"/>
    <rect x="156" y="18" width="24" height="16" rx="2" stroke="currentColor" stroke-width="2" fill="none"/>
    <polygon points="164,24 164,28 170,26" fill="currentColor"/>
  </g>
  
  <!-- Education Icon -->
  <g id="education">
    <rect x="192" y="0" width="48" height="48" rx="12" fill="currentColor" opacity="0.1"/>
    <path d="M216 18 L208 22 L216 26 L224 22 Z" stroke="currentColor" stroke-width="2" fill="none"/>
    <path d="M204 24 L204 30 Q204 32 208 32 L224 32 Q228 32 228 30 L228 24" stroke="currentColor" stroke-width="2" fill="none"/>
  </g>
</svg>