<?xml version="1.0" encoding="UTF-8"?><svg id="katman_1" xmlns="http://www.w3.org/2000/svg" viewBox="0 0 500 250"><defs><style>.cls-1{fill:#fff;}</style></defs><path d="M189.89,87.88h27.59l-.66,3.94h83.76l-11.03,41.05c-.09.99.65,2.18,1.5,2.64l12.81-43.69h85.41l-6.3,24.09-1.36.95c-1.85,6.25-3,13.14-4.99,19.31-.68,2.13-1.49,1.56-1.75,2.19-2.04,5.05-3.1,13.02-4.75,18.58-.24.81-.82,3.62-1.43,3.83l-94.17.06-5.97-11.51-8.87,27.26-21.79-20.27,5.2-18.16h-12.48l-6.57,22.67h-84.75l6.9-23.32-1.35.2-11.8,38.89-22.34-20.55,19.88-64.2h28.09l-6.25,21.18c.02.4,1.54.23,1.59-.38l6.17-19.12,33.8-20.07-4.11,14.45ZM159.01,118.43h-15.77l6.57-21.68h-13.96l-17.52,55.94c3.36,2.85,6.43,6.49,9.8,9.27.36.3,1.44,1.37,1.81.82l10.02-32.85h15.44l-6.57,22.67h13.96l20.2-65.69-17.97,10.27-6.01,21.26ZM208.29,93.14h-14.45l-5.09,18.07,16.5-7.31,3.04-10.76ZM250,97.08h-28.58l-15.44,50.59h-14.12l12.65-41.39-16.89,7.75-11.53,38.57h43.03l6.4-22.02,15.3-.46,2.94-11.35h-14.45l3.27-10.36,14.15-.3,3.27-11.02ZM292.05,97.08h-29.4l-17.24,55.39.47,1.13,10.54,9.5,10.56-32.86,1.46.22,10.13,22.23.9.48,41.6-.23c.58-.13,2.85-9.8,2.84-11.18h-13.8l3.66-11.78,14.38-.08,2.99-11.46h-13.8l2.99-10.15,14.27-.35,3.11-10.85h-28.58l-15.14,50.22-4.09.06-8.36-17.1,2.01-.2,8.5-32.98ZM380.41,97.08h-28.58l-16.75,56.17h28.91l2.96-11.5h-14.12l3.32-11.79,14.44-.18,3.27-11.35h-14.12l2.99-10.15,14.72-.07,2.99-11.13Z"/><path class="cls-1" d="M292.05,97.08l-8.5,32.98-2.01.2,8.36,17.1,4.09-.06,15.14-50.22h28.58l-3.11,10.85-14.27.35-2.99,10.15h13.8l-2.99,11.46-14.38.08-3.66,11.78h13.8c0,1.39-2.26,11.05-2.84,11.18l-41.6.23-.9-.48-10.13-22.23-1.46-.22-10.56,32.86-10.54-9.5-.47-1.13,17.24-55.39h29.4ZM270.37,118.76h4.6l2.63-10.18-3.79-.02-.52.21-2.92,9.99Z"/><path class="cls-1" d="M159.01,118.43l6.01-21.26,17.97-10.27-20.2,65.69h-13.96l6.57-22.67h-15.44l-10.02,32.85c-.37.55-1.45-.52-1.81-.82-3.37-2.78-6.44-6.42-9.8-9.27l17.52-55.94h13.96l-6.57,21.68h15.77Z"/><polygon class="cls-1" points="250 97.08 246.73 108.1 232.58 108.4 229.31 118.76 243.76 118.76 240.83 130.11 225.52 130.58 219.13 152.59 176.1 152.59 187.62 114.02 204.51 106.28 191.86 147.66 205.99 147.66 221.43 97.08 250 97.08"/><polygon class="cls-1" points="380.41 97.08 377.42 108.21 362.71 108.28 359.72 118.43 373.84 118.43 370.57 129.78 356.14 129.96 352.82 141.75 366.95 141.75 363.99 153.25 335.08 153.25 351.83 97.08 380.41 97.08"/><polygon class="cls-1" points="208.29 93.14 205.25 103.9 188.75 111.21 193.83 93.14 208.29 93.14"/><polygon points="270.37 118.76 273.29 108.77 273.81 108.55 277.6 108.58 274.97 118.76 270.37 118.76"/></svg>