<?xml version="1.0" encoding="UTF-8"?><svg id="katman_1" xmlns="http://www.w3.org/2000/svg" viewBox="0 0 500 250"><defs><style>.cls-1{fill:#fff;}.cls-1,.cls-2{fill-rule:evenodd;}.cls-2{fill:#1d0e46;}</style></defs><path class="cls-2" d="M175.77,130.93h8.66c3.33,0,4.04.94,4.04,4.16,0,3.6-1.61,3.84-4.98,3.84h-7.72v-8ZM185.26,143.75c6.19,0,8.86-1.69,8.86-8.19,0-3.72-.78-6.43-4.9-6.9v-.16c3.56-.86,4.19-3.13,4.19-6.5,0-6.47-2.9-7.64-8.66-7.64h-14.62v29.39h15.13ZM175.77,119.18h7.96c2.78,0,4.04.23,4.04,3.37s-.71,4.12-3.88,4.12h-8.11v-7.48Z"/><path class="cls-2" d="M216.87,114.36v20.89c0,3.17-1.42,3.92-6.66,3.92s-6.54-.9-6.54-3.92v-20.89h-5.64v20.89c0,8.23,5.29,8.74,12.19,8.74s12.31-.55,12.31-8.74v-20.89h-5.64ZM208.21,107.7v3.45h-3.88v-3.45h3.88ZM216.24,107.7v3.45h-3.91v-3.45h3.91Z"/><polygon class="cls-2" points="251.51 114.36 245.01 114.36 237.92 126.9 237.8 126.9 230.82 114.36 224.39 114.36 235.01 132.46 235.01 143.75 240.66 143.75 240.66 132.46 251.51 114.36"/><path class="cls-2" d="M272.28,114.36v20.89c0,3.17-1.42,3.92-6.66,3.92s-6.55-.9-6.55-3.92v-20.89h-5.64v20.89c0,8.23,5.29,8.74,12.19,8.74s12.3-.55,12.3-8.74v-20.89h-5.64ZM263.62,107.7v3.45h-3.88v-3.45h3.88ZM271.65,107.7v3.45h-3.92v-3.45h3.92Z"/><polygon class="cls-2" points="288.46 114.36 282.82 114.36 282.82 143.75 288.46 143.75 288.46 131.17 291.08 131.17 301.9 143.75 309.03 143.75 295.9 128.7 307.82 114.36 300.88 114.36 291.08 126.35 288.46 126.35 288.46 114.36"/><path class="cls-2" d="M309.34,134.38v1.37c0,8.43,5.8,8.23,12.3,8.23,7.56,0,11.48-.71,11.48-8.98,0-7.48-2.47-7.95-11.52-8.5-5.72-.35-6.47-.47-6.47-4.08,0-3.13.9-3.68,6.5-3.68,3.96,0,5.25.12,5.25,3.29v.94h5.64v-.94c0-7.72-4.9-7.92-10.89-7.92-7.05,0-12.15.23-12.15,8.31,0,8.54,5.02,8.31,11.37,8.7,4.39.23,6.62-.31,6.62,3.88,0,3.41-.71,4.35-5.84,4.35s-6.66-.24-6.66-3.61v-1.37h-5.64ZM322.58,144.22l-4.47,2.71,1.06,1.8,5.13-2.04-1.72-2.47Z"/><polygon class="cls-2" points="342.05 119.18 356.55 119.18 356.55 114.36 336.41 114.36 336.41 143.75 356.67 143.75 356.67 138.93 342.05 138.93 342.05 131.13 355.81 131.13 355.81 126.51 342.05 126.51 342.05 119.18"/><polygon class="cls-2" points="385.82 114.36 380.18 114.36 380.18 126.39 366.5 126.39 366.5 114.36 360.86 114.36 360.86 143.75 366.5 143.75 366.5 131.21 380.18 131.21 380.18 143.75 385.82 143.75 385.82 114.36"/><path class="cls-2" d="M396.43,114.36h-5.64v29.39h5.64v-29.39ZM395.53,110.05h-3.88v3.45h3.88v-3.45Z"/><path class="cls-2" d="M415.51,134.03c2.7.04,3.72,1.76,3.72,4.23v5.49h5.64v-5.49c0-4.15-.98-6.31-4.98-6.66v-.16c4.98-.75,5.21-3.92,5.21-8.27,0-6.66-2.47-8.66-8.9-8.82h-15.01v29.39h5.65v-9.72h8.66ZM406.84,129.21v-10.03h7.84c4.04,0,4.78.74,4.78,4.9s-1.02,5.13-5.17,5.13h-7.44Z"/><path class="cls-2" d="M238.94,76.6h-2.94v25.96h2.94v-25.96ZM239.01,73.42h-3.05v2.56h3.05v-2.56Z"/><polygon class="cls-2" points="267.61 76.6 248.19 76.6 248.19 79.2 264.01 79.2 247.7 100.01 247.7 102.57 267.95 102.57 267.95 99.97 251.27 99.97 267.61 79.34 267.61 76.6"/><polygon class="cls-2" points="302.23 78.82 302.3 78.82 302.3 102.57 305.25 102.57 305.25 76.6 300.16 76.6 290.95 98.83 281.78 76.6 276.69 76.6 276.69 102.57 279.63 102.57 279.63 78.82 279.7 78.82 289.53 102.57 292.44 102.57 302.23 78.82"/><path class="cls-2" d="M318.51,76.6h-2.94v25.96h2.94v-25.96ZM318.58,73.42h-3.05v2.56h3.05v-2.56Z"/><path class="cls-2" d="M331.7,92.18h9.45c3.57,0,4.36,1.59,4.36,4.88v5.5h2.94v-6.89c0-2.8-1.28-4.46-4.19-4.67v-.07c4.12-.52,4.54-3.22,4.54-6.85,0-5.92-2.46-7.48-8.07-7.48h-11.98v25.96h2.94v-10.39ZM331.7,89.59v-10.39h9.07c4.64,0,5.09,1.25,5.09,4.57,0,4.29-.55,5.68-5.09,5.82h-9.07Z"/><path class="cls-2" d="M184.34,169.45h9.66c3.88-.07,4.4,1.66,4.4,5.09,0,3.98-1.56,4.36-4.74,4.36h-9.31v-9.45ZM195.21,181.5c4.4,0,6.13-2.56,6.13-7.23,0-3.22-.55-5.71-4.02-6.33v-.07c2.7-.9,3.25-2.74,3.25-5.47,0-4.53-1.14-6.85-6.02-6.85h-13.15v25.97h13.81ZM184.34,158.13h8.86c3.08,0,4.43.38,4.43,3.88,0,4.05-1.21,4.85-4.74,4.85h-8.55v-8.72Z"/><polygon class="cls-2" points="213.07 158.13 226.82 158.13 226.82 155.53 210.13 155.53 210.13 181.5 226.82 181.5 226.82 178.9 213.07 178.9 213.07 169.38 226.23 169.38 226.23 166.96 213.07 166.96 213.07 158.13"/><polygon class="cls-2" points="239.04 155.53 236.1 155.53 236.1 181.5 252.26 181.5 252.26 178.9 239.04 178.9 239.04 155.53"/><polygon class="cls-2" points="262.58 158.13 276.32 158.13 276.32 155.53 259.64 155.53 259.64 181.5 276.32 181.5 276.32 178.9 262.58 178.9 262.58 169.38 275.74 169.38 275.74 166.96 262.58 166.96 262.58 158.13"/><path class="cls-2" d="M285.22,181.5h13.33c7.79,0,8.2-7.2,8.2-9.76v-6.2c0-9.59-5.75-10.01-8.9-10.01h-12.63v25.97ZM288.16,178.9v-20.77h10.18c4.95,0,5.47,4.81,5.47,6.27v6.82c-.07,4.64-.76,7.69-5.95,7.69h-9.69Z"/><path class="cls-2" d="M319.26,155.53h-2.94v25.97h2.94v-25.97ZM319.33,152.35h-3.05v2.56h3.05v-2.56Z"/><polygon class="cls-2" points="349.2 155.53 345.7 155.53 338.02 167.68 330.33 155.53 326.91 155.53 336.43 170.66 336.43 181.5 339.37 181.5 339.37 170.66 349.2 155.53"/><polygon class="cls-2" points="358.76 158.13 372.5 158.13 372.5 155.53 355.82 155.53 355.82 181.5 372.5 181.5 372.5 178.9 358.76 178.9 358.76 169.38 371.91 169.38 371.91 166.96 358.76 166.96 358.76 158.13"/><path class="cls-2" d="M389.95,169.52c4.74.38,6.96-.45,6.96,4.5s-1.52,5.09-7.06,5.09-6.61,0-6.54-5.71h-2.94c-.55,7.51,2.88,8.31,9.49,8.31s10-.24,10-7.58-3.12-6.86-9.28-7.2c-4.85-.14-7.2.28-7.2-4.67,0-3.6.8-4.33,6.54-4.33s6.37.17,6.51,4.71h2.94c.31-7.06-3.74-7.3-9.35-7.3-6.41,0-9.59.62-9.59,7.55s4.4,6.23,9.52,6.65Z"/><path class="cls-2" d="M411.8,155.53h-2.94v25.97h2.94v-25.97ZM411.87,152.35h-3.05v2.56h3.05v-2.56Z"/><path class="cls-2" d="M119.33,77.48h.95v.87c.11.07.15.16.32.17,0,0,.01,0,.02-.02.09-.03.41-.6.39-.68-.04-.09-.08-.18-.13-.27.1-.16.2-.32.3-.48h.04v1.6c0,.18-.04.46.03.6.2.05.49.16.39.42-.46.03-.88.32-.95.67-.02.1.05.22.05.36h-.11v3.57h.32v.09h-.09s-.01.06-.02.09h-.11v.09c-.09,0-.07,0-.11.04-.05.12.15.68.11.83-.09.36-.05.89-.05,1.32v2.41h.55c.16.19.31.38.47.57h.7c.03.06.07.12.11.17h.48c-.04.17-.07.34-.11.51h.04c.06,0,.12.02.18.03-.04.16-.08.31-.13.47h.23c-.03.17-.06.35-.09.52h.98c-.05-.17-.1-.34-.14-.51h.23c-.03-.16-.06-.33-.09-.49h.21c-.05-.17-.11-.35-.16-.52h.37v2.19c.15.08.3.15.45.23,0,.06-.01.12-.02.17h-.2v.13c-.32.06-.99.44-.79.83.06.1.21.14.32.2-.02.15-.14.22-.2.32v.94h-.18v.26c.06,0,.12,0,.18.01v7.65h-.14v.28h.18v.97h-.11c.06.13.12.25.18.38v1.18c-.28.11-.99.78-.66,1.15-.06.07-.12.14-.18.2h-.25c0,.4-.04.77-.11,1.06h-.09v14.55h.27v2.74c-.09.15-.16.35-.2.57-.02.1.07.11.05.17-.19.82-.05,2.01-.05,2.92h1.05v.13h-.11c0,.6.16,2.24-.14,2.57h-.8v.8c.25-.02.44-.26.57-.39,0,0-.01-.02-.02-.03-.19.02-.28.11-.43.16.02-.04.05-.09.07-.13-.03-.03-.06-.07-.09-.1.27.02.26-.06.18-.2.1.06.19.13.29.19,0-.13.02-.18.07-.25.01,0,.02,0,.04-.01.15,0,.2.02.29.06.03.09.05.18-.02.25-.08.13-.37.2-.5.29-.08.08-.17.16-.25.25-.07,0-.13,0-.2.02v11.09c.08.03.15.07.23.1,0,.22-.1,1.34.02,1.45.27.1.78-.01.86-.17v-.06c-.04-.16-.17-.16-.3-.23.25.02.34.12.54.19.21-.06.31-.19.25-.42-.19-.16-.33-.12-.66-.16-.06-.1-.04-.16.04-.25.14-.04.38-.04.55-.1h-.04c-.07-.05-.11-.07-.16-.15.03-.14.42-.29.57-.26.16.02.3.09.41.16.03.09.03.13,0,.22.2.03.32.11.45.2,0,.05-.01.1-.02.14-.59.15-.45.69.02.52,0,.16.02.24.09.33.13.03.25.04.41.01.04-.03.07-.07.11-.1.03-.08,0-.15-.02-.22.11.05.18.06.32.03.12-.12.19-.22.13-.42-.1-.06-.33-.14-.41-.22.1-.17.3-.16.47-.27-.06-.06-.1-.08-.11-.19.11-.11.4-.29.52-.17.12.05.24.1.36.15,0,.11-.03.14-.11.19,0,0,.01.02.02.03.22.02.38.1.5.2,0,.05-.01.11-.02.16-.19,0-.36.01-.43.1-.08.07-.14.24-.04.33.06.11.2.15.39.15,0,.12.01.19.11.23.11.09.41.06.48-.04.05-.04.06-.1.05-.19.19,0,.26-.03.36-.09.06-.14.07-.24.02-.39-.08-.04-.32-.11-.38-.17v-.04c.06-.18.27-.14.43-.25-.04-.05-.1-.12-.05-.2.06-.12.39-.26.46-.19.11.04.21.09.32.13.05.14-.03.2-.05.28.26,0,.43.07.5.23-.1.11-.31.1-.41.2-.27.29.12.44.37.48,0,.12.02.18.07.25.13.03.26.03.39,0,.11-.06.12-.1.11-.23.16.04.3-.02.39-.07.05-.13.08-.31-.04-.41-.07-.08-.24-.08-.37-.1-.01-.05-.02-.1-.04-.14.16-.17.39-.12.59-.25-.04-.02-.07-.05-.11-.07,0-.03.01-.07.02-.1.06-.1.23-.17.37-.2v2.25c.12.07.3.18.32.32-.09.02-.07.03-.07.12-.15.02-.13.1-.23.13-.2,0-.39,0-.59.01-.05.07-.09.14-.14.2-.04.13.06.2,0,.3-.28.09-.18.65-.18.96v2.93c.08.03.08,0,.09.1-.07.08-.05.55-.09.71-.12.02-.11,0-.16.1.04.1.07.19.11.29-.04.01-.07.03-.11.04v5s.07.06.11.09c0,.14-.01.27-.02.41.13.19.18.13.18.48.65-.25,1.97-.59,1.84-1.38-.1,0-.12-.02-.16-.07v-.13c.05-.07.12-.05.16-.14h-.04c-.18-.05-.36-.1-.54-.15-.02-.07-.03-.09-.02-.16.09-.09.36-.14.5-.19,0-.3.1-.24.16-.39.13-.31-.33-.83-.27-1.06.15-.24.31-.48.46-.73.01,0,.02,0,.04.01.12.24.25.48.37.73-.08.22-.15.45-.23.67-.05.28.12.46.12.77.17.05.39.12.52.2,0,.04-.01.09-.02.13-.1.15-.47.09-.55.23.08.02.11.02.14.07v.16c-.37.14.04.82.29.87,1.69.39,3.47,1.86,3.49,3.64h.41c.11-.7.93-.74,1.04.01h.27v.41c-.35.03-.42.39-.23.6.1.02.16.04.3.04.3-.13.22-.44.41-.65.01,0,.02,0,.04.01.05.06.1.13.14.19.04.13-.05.24.03.36.16.04.32.07.5.03.22-.24.05-.48-.2-.59v-.35h.23c.01-.29.18-.54.5-.57v2.11s.01.02.02.03c.14.02.24.08.29.17v.19c-.13.21-.56.17-.73.36.03.11.14.2.09.31-.01.01-.02.03-.04.04h-.16s-.01.06-.02.09h-.14c0,.15.04.23.07.31v6.97c.01.06.02.12.03.17-.08.09-.17.17-.25.26-.09.28.12.64-.21.8-.07-.01-.13-.03-.2-.04v.03c-.01.56-.02,1.12-.04,1.68v3.93c.03.11.12.14.12.32.15,0,.21.01.29.06v.31c.1.04.2.08.3.12v.64c-.05.06-.09.13-.14.19-.04.12.06.14.09.19v.57c.39,0,.97-.06,1.14.12v.03s-.04,0-.05.01c-.03,0-.06.01-.09.02v.12c-.27.06-.93.37-.73.74.08.15.17.19.07.45-.12.33-.41.53-.73.7.07.09.06.27.05.42h10.28v.87h2.99v.84h2.98v.84h-80.87v-.84h2.98v-.84h2.98v-.87h10.28c0-.15.04-.41.02-.45-.42-.14-.69-.49-.75-.93-.02-.14.09-.12.12-.19.2-.37-.46-.68-.73-.74v-.12s-.08,0-.13-.02c0-.02-.01-.04-.02-.06.24-.13.73-.11,1.14-.1v-.57c.02-.05.13-.07.09-.19-.05-.06-.1-.13-.14-.19v-.64c.1-.04.2-.08.3-.12,0-.16,0-.28.07-.36h.21c0-.18.09-.21.12-.32v-3.75c0-.36.04-.81-.04-1.12v-.78c-.06.01-.13.03-.2.04-.33-.16-.13-.52-.22-.8-.08-.09-.17-.17-.25-.26.01-.06.02-.13.03-.19v-6.95c.04-.08.07-.16.07-.31-.05,0-.11,0-.16-.02v-.07c-.05,0-.11,0-.16-.01-.02,0-.04-.02-.05-.03.01-.13.12-.2.09-.31-.07-.2-.54-.21-.73-.36-.01-.26.1-.31.32-.38v-2.12c.33.03.49.28.5.57h.23c0,.13.01.29-.04.38-.24.06-.31.26-.23.49.14.15.44.1.61.01.07-.24-.02-.38.18-.54h.02c.07.2.14.57.37.64.15.06.3-.02.38-.07.12-.24.03-.52-.29-.55v-.41h.27c.03-.24.14-.48.38-.55.41-.1.62.28.66.54h.41c-.03-1.37,1.13-2.52,2.11-3.09.31-.15.62-.3.93-.45.55-.21.89-.24.89-.93-.09-.01-.12-.02-.16-.07v-.16s.1-.03.14-.04c0-.02-.01-.04-.02-.06-.22,0-.44-.08-.55-.17,0-.13.03-.14.09-.2.14-.04.29-.09.43-.13,0-.32.17-.49.13-.77-.08-.22-.15-.44-.23-.65.13-.25.26-.5.39-.75.01,0,.02,0,.03.01.15.24.3.47.45.71.07.23-.4.75-.27,1.06.05.04.11.09.16.13.05.09-.04.2.04.26.13.1.38.06.47.2.03.07-.01.12-.05.18-.18.04-.36.08-.54.12v.06c.09.02.12.04.18.09,0,.05-.01.11-.02.16-.05.02-.11.03-.16.04-.11.8,1.18,1.11,1.84,1.38,0-.35.03-.29.18-.48,0-.14-.01-.27-.02-.41.04-.03.07-.06.11-.09v-3.4c0-.53-.01-1.06-.02-1.6-.05-.06-.07-.03-.09-.13.1-.08.1-.2.07-.31-.12.01-.14,0-.12-.09-.17-.22.05-.42-.02-.57-.02-.05-.06-.04-.07-.15.07,0,.05,0,.09-.03v-2.88c0-.39.09-.88-.22-1.03.02-.21.06-.39-.14-.48-.18,0-.37,0-.55-.01-.1-.03-.08-.11-.23-.13,0-.11-.04-.09-.07-.17.11-.09.21-.18.32-.28v-2.24c.17.03.29.12.39.2,0,.12-.02.13-.11.18,0,0,.01.02.02.03.26.01.49.07.57.23,0,.08-.01.1-.07.13-.09.03-.23.02-.3.07-.17.09-.13.34-.03.46.1.03.22.07.36.04,0,.14,0,.15.09.23.17.03.32.03.45-.03.01-.07.02-.14.04-.2.37,0,.62-.29.37-.54-.09-.09-.32-.07-.41-.16.11-.22.3-.14.52-.26-.09-.03-.11-.07-.11-.17.09-.14.29-.14.41-.26.15.07.31.15.43.25,0,.11-.02.14-.07.2.17.11.32.1.45.25,0,.02-.01.05-.02.07-.17.03-.31.05-.37.17-.11.14-.02.31.07.41.1.03.16.04.3.04,0,.12.01.19.11.23.12.09.41.06.48-.04.05-.04.06-.1.05-.19.23,0,.37-.06.43-.19.05-.13-.03-.22-.07-.32-.12-.04-.29-.05-.45-.09,0-.05.01-.1.02-.14.1-.16.34-.13.5-.23-.11-.06-.13-.14-.05-.23.14-.03.29-.09.37-.17.24.11.58.18.34.44.17.11.36.1.46.27,0,.02-.01.03-.02.04-.38.01-.62.46-.23.6.11.05.2.01.29-.03-.02.08-.04.15-.02.23.04.03.08.06.13.09.17.05.31.02.43-.04.03-.09.05-.17.05-.3.27.09.51-.07.37-.35-.07-.14-.26-.1-.36-.2,0-.03-.01-.07-.02-.1.12-.15.29-.11.45-.22,0,0-.01-.02-.02-.03-.02-.09-.01-.15.05-.2.08-.09.26-.1.37-.16.2.03.54.1.57.29-.06.06-.09.1-.2.13h0c.3,0,.47.06.63.16,0,.09,0,.1-.02.17-.02,0-.04,0-.05.01-.28.08-.52-.05-.63.19-.07.12.03.27.09.35.05.02.11.03.16.04.2-.06.28-.17.54-.19v.02h-.04c-.11.06-.32.12-.27.26.08.22.59.24.89.19,0-.49-.01-.98-.02-1.47.08-.03.15-.06.23-.09v-11.09s-.21-.02-.25-.04c-.07-.07-.13-.14-.2-.22-.17-.11-.38-.19-.54-.3-.02-.11,0-.18.05-.26.07-.02.17-.04.25-.01.11.04.12.11.11.25.09-.06.19-.13.29-.19-.02.06-.05.13-.07.19.08,0,.17,0,.25.01-.03.03-.06.07-.09.1.02.04.05.09.07.13-.12-.04-.31-.2-.45-.13.13.13.32.37.57.39v-.8c-.4,0-.74.02-.95-.12v-2.45h-.11v-.13h1.05c0-.91.14-2.1-.05-2.92-.02-.06.07-.08.05-.17-.03-.22-.11-.42-.2-.57v-2.74h.27v-14.55h-.09c-.06-.29-.11-.66-.11-1.06-.1,0-.2,0-.25-.03-.06-.06-.12-.12-.18-.17.38-.42-.42-.97-.66-1.16v-1.16c.06-.13.12-.25.18-.38h-.11v-.97h.18v-.28h-.14c0-2.56.01-5.11.02-7.67h.16v-.26h-.18v-.94c-.03-.05-.18-.17-.2-.23-.03-.08.04-.11.07-.15.14-.03.19-.07.27-.15.01-.48-.35-.74-.8-.83v-.13c-.07,0-.14,0-.21-.02v-.17c.15-.08.3-.15.45-.23v-2.18h.37c-.05.17-.11.35-.16.52h.21c-.03.16-.06.33-.09.49h.23c-.05.17-.1.34-.14.51h.98c-.03-.17-.06-.35-.09-.52h.23c-.04-.16-.08-.31-.13-.47,0,0,.01,0,.02-.01.07,0,.13,0,.2-.01-.04-.17-.07-.34-.11-.51h.48c.03-.06.07-.12.11-.17.22,0,.57.03.73-.03.15-.18.3-.36.45-.54h.54v-2.42c0-.42.04-.96-.05-1.31-.04-.14.14-.71.11-.86-.04,0-.07,0-.11-.01v-.09s-.08,0-.13-.01v-.07h-.09v-.09h.32v-3.57h-.11c.02-.73-.13-.84-.91-1.05,0-.3.23-.33.45-.43,0-.72.01-1.44.02-2.16,0,0,.01.02.02.03.1.15.2.3.3.45-.04.09-.08.18-.13.27-.03.15.11.16.16.25.13.21-.02.42.32.45.33-.17.26-.61.25-1.05h.95c-.03-1.55.83-2.62,1.91-3.28.73-.45,1.77-.47,1.81-1.49-.05-.03-.1-.06-.14-.09,0-.14.08-.15.16-.22-.01-.04-.02-.08-.04-.12-.36-.05-.67-.63-.3-.89-.06-.06-.09-.05-.11-.16.17-.04.33-.08.5-.12v-.12c-.14-.01-.14-.04-.2-.12,0-.02.01-.04.02-.06.08-.07.18-.06.2-.17-.59-.73-.05-.53.05-1.15-.18,0-.22-.05-.3-.13,0-.3.3-.17.32-.41,0-.01-.01-.02-.02-.03-.15-.02-.22-.06-.3-.13.02-.24.25-.21.32-.38v-3.14c-.42-.06-.77-.63-.34-.89-.12.3.01.79.52.7.39-.07.53-.36.39-.7.03.02.06.04.09.06.16.36.05.75-.43.83v3.14c.07.16.29.14.32.36-.07.1-.18.12-.32.16v.13c.13.02.2.05.29.1.02.06.05.12.02.19-.05.09-.13.13-.29.13.04.28.33.38.36.64.02.25-.28.35-.3.6.15.01.16.05.21.13-.01.03-.02.06-.04.09-.11.03-.16.03-.16.16.17.04.33.08.5.12v.06c-.06.08-.12.07-.05.13.16.41.06.73-.38.87-.01.14.05.16.14.23-.02.16-.11.12-.14.26.09.25.12.51.29.7.15.17.51.2.73.3.32.17.64.35.97.52,1.02.65,1.73,1.7,1.73,3.17Z"/><path class="cls-1" d="M101.76,158.13h.86c0-.15-.02-.36.04-.47.2-.06.17-.25.16-.48h.27c.01-.08.01-.08.11-.1,0-1.76,0-3.85,0-5.37h-.02c-.08.02-.07.03-.14,0-.01-.08-.03-.08-.07-.13-.14,0-.18.04-.27.01-.02-.2-.04-.37.02-.55-.05-.04-.11-.08-.16-.12.04-.04.04-.04.11-.06-.04-.11-.07-.21-.11-.32.16-.04.26-.15.34-.26.29-.44-.28-.62-.5-.83v-.04c.49-.27.67-.84.07-1.15-.34.13-.74.46-.57.94.04.12.16.15.2.28-.29.15-.6.53-.3.88.1.06.2.13.3.19-.04.1-.07.2-.11.31.05,0,.1,0,.14.01-.11.14-.15.48-.09.68-.11,0-.12.02-.27.02-.02.12-.09.39-.14.48v5.02c.13.29.14.66.14,1.05Z"/><path class="cls-1" d="M104.37,157.22v.39c.07.03.13.06.2.09v.44h.55v-.44c.07-.04.13-.08.2-.12v-.39h.27c.02-.08.03-.09.13-.1,0-1.76,0-3.86,0-5.39h-.02s-.08.03-.13.04c-.03-.05-.06-.11-.09-.16-.14,0-.22.05-.27,0-.1-.2-.03-.38,0-.55-.07-.03-.11-.05-.14-.12.04-.02.02-.02.09-.03-.02-.08-.13-.3-.07-.33.81-.53.21-.72-.2-1.09v-.04c.57-.3.59-.77.09-1.15-.36.07-.82.56-.57,1,.04.07.13.12.18.2-.11.08-.22.15-.32.23-.22.29-.05.77.3.83-.03.11-.06.22-.09.33h.14c-.13.2-.11.41-.11.7-.09,0-.12.01-.25.02-.24.92-.14,2.33-.14,3.48,0,.69-.08,1.52.05,2.13.07,0,.13,0,.2.02Z"/><path class="cls-1" d="M124.69,157.19v.41c.07.03.13.07.2.1v.44h.55c0-.12-.04-.37.04-.44.05-.03.11-.07.16-.1v-.39h.2c.1-.44.05-1.05.05-1.55v-2.79c0-.47.09-1.34-.39-1.29,0-.29,0-.48-.11-.7h.14c-.03-.11-.06-.22-.09-.33.34-.06.54-.54.3-.83-.11-.08-.21-.16-.32-.25.4-.59.17-.84-.34-1.19-.16.03-.21.13-.29.23-.34.49.03.64.32.93-.02.03-.04.06-.05.09-.52.14-.74.86-.11,1.03-.04.1-.07.2-.11.3.03.02.06.04.09.06v.04s-.1.07-.14.1c.06.14.09.39-.02.57-.1-.04-.18-.05-.28-.01-.02.06-.03.1-.07.13-.04,0-.08-.02-.12-.03,0,1.47,0,3.62,0,5.37.1.02.11.02.12.1h.27Z"/><path class="cls-1" d="M127.2,157.19c0,.11-.03.35.04.41.05.03.11.06.16.09v.44h.86c0-.38.02-.75.14-1.03v-3.46c0-.71.07-1.55-.16-2.05-.14,0-.14-.01-.25-.02.03-.26.04-.52-.11-.7h.16v-.02c-.04-.1-.07-.2-.11-.3.28-.14.61-.51.3-.86-.1-.07-.2-.14-.3-.22.04-.11.14-.13.18-.22.22-.47-.22-.85-.55-.99-.74.41-.28.8.07,1.16-.13.28-.77.33-.52.81.08.14.18.25.36.3-.04.11-.07.21-.11.32.08.02.07.01.11.06-.05.04-.11.09-.16.13.07.16-.03.38.04.49-.02.02-.05.05-.07.07-.11-.04-.17-.05-.27,0-.02.04-.04.08-.05.12-.04,0-.08-.02-.13-.03,0,1.52,0,3.62,0,5.37.1.02.09.03.13.1h.25Z"/><path class="cls-1" d="M92.58,172.35c0,1.24-.02,2.59-.02,3.95v1.76c.04.12.12.17.13.33.18,0,.23.02.32.07v.28h.55v-.33h.3c0-.43.29-.43.54-.64.22.05.4.22.57.32.02.13,0,.22-.03.32.1,0,.2,0,.3.01v.33h1.68c0-.19.02-.27.11-.36h.27c-.07-.14.04-.16.11-.28-.01-.02-.02-.04-.04-.06,0-.5-.01-1-.02-1.5-.67-.11-1.38-.63-1.72-1.03,0-.09.02-.11.05-.16.15,0,.31.02.46.03.13-.01.25-.03.37-.04.11.02.23.05.34.07.15-.03.31-.09.52-.12,0-.95.11-2.16-.07-2.79-.19,0-.27-.03-.38-.09-.05-.28-.13-.55-.16-.71.06-.06.09-.05.09-.17-.06-.05-.12-.11-.18-.16v-.09h.32c-.09-.16-.18-.33-.27-.49.05-.23.11-.46.16-.7.09-.43.02-.97-.09-1.32-.36-1.18-1.04-1.67-1.9-2.42-1.08.52-2.83,1.96-2.23,3.54.13.34.34.57.57.81-.07.19-.14.39-.21.58.14,0,.2,0,.25.06-.01.01-.02.03-.04.04-.16.05-.11.72-.21.94h-.47Z"/><path class="cls-1" d="M133.29,171.3v.1c-.11.06-.18.11-.18.28.06.02.05.01.09.04-.02.13-.06.11-.11.2-.02.17-.04.34-.05.51-.07.09-.28.04-.37.12-.09.14.01.5,0,.62-.07.61-.07,1.43-.07,2.13.21.02.37.09.52.12.11-.02.23-.05.34-.07.13-.02.82.02.89.06v.13c-.17.15-.33.29-.5.44-.37.24-.77.44-1.23.59,0,.22.05,1.47-.04,1.54.08.09.18.15.11.26v.02c.21,0,.27.02.37.09v.28h1.68c0-.12.01-.23.02-.35h.29c-.09-.16-.04-.29.05-.39.13-.05.37-.28.5-.22.29.09.53.26.52.61h.3v.33h.55c0-.17,0-.26.09-.35h.23c0-.16.09-.22.12-.33v-1.76c0-1.36-.02-2.71-.02-3.95-.13,0-.39.02-.46-.03-.22-.19.02-.71-.25-.96,0-.02.01-.04.02-.06h.23c-.07-.2-.14-.4-.21-.6.23-.14.35-.36.47-.59.6-1.18-.29-2.45-1.04-3.06-.15-.12-.95-.72-1.11-.65-.25.1-.48.34-.64.51-.7.71-1.12,1.35-1.34,2.5-.06.33,0,.74.07,1.02.04.13.07.26.11.39-.09.16-.18.33-.27.49h.32Z"/></svg>