<?xml version="1.0" encoding="UTF-8"?><svg id="katman_1" xmlns="http://www.w3.org/2000/svg" viewBox="0 0 500 250"><defs><style>.cls-1{fill:#cd1f31;}.cls-2{fill:#fff;}</style></defs><path class="cls-1" d="M220.36,60.61c45.03-2.02,97.01,1.38,141.31,9.47,9.57,1.75,27.67,4.95,33.83,12.96,10.3,13.39,9.89,65.27,1.59,79.93-5.99,10.58-27.56,14.11-38.9,16.52-69.72,14.77-143.55,13.16-213.32-.12-9.37-1.78-31.73-5.07-38.03-11.64-12.48-13.01-11.99-58.75-6.23-74.97,5.25-14.79,20.28-18.47,34.17-21.24,25.95-5.19,59.19-9.72,85.58-10.9ZM286.76,122.93v-33.42c0-3.38-13.77-5.53-16.56-4.67v65.76c0,.16,1.67,2.31,1.97,2.54,3.65,2.73,9.57,2.1,13.87,2.13v-20.12c3.72.61,7.94,3,10.09,6.1,3,4.32,2.82,12.55,9.16,13.85,4.43.91,10.08-.92,14.6-1.28-3.51-9.93-9.32-20.89-19.44-25.16-.46-1.93,1.76-1.64,3.24-2.86,4.03-3.33,9.95-12.65,12-17.5.33-.78.99-.71-.1-1.57-4.79-.81-11.78-2.35-16.13.47-4.99,3.23-6.5,13.43-12.7,15.72ZM162.9,102.81h13.32c4.02,0,9.46-8.83,7.55-12.94-15.72,2.43-33.4,3.04-49.35,2.19-2.86-.15-6.11-1.02-8.97-1.46-1.45,14.15,9.83,12.74,20.16,12.93l.37,50.3c3.83,5.06,11.09,4.93,16.91,5.05v-56.06ZM368.86,154.56v-44.2c0-4.32-13.23-6.42-16.56-5.39v37.37c-3.11.95-11.84,1.97-13.72-1.22-2.83-4.8,1.42-25.33-1.21-30.95-1.79-3.82-12.17-5.06-16.03-4.48v38.45c0,.43,3.01,5.04,3.67,5.68,9.23,8.88,23.79,2,34.16,2.56,3.44.19,6.35,1.82,9.7,2.18ZM226.99,107.12v44.92c0,3.13,14.64,5.74,17.28,4.67v-38.09c7.53-1.88,13.61.31,16.2,7.9,5.35-4.32,8.56-14.68,1.01-18.24-11.67-5.5-22.82,3.8-34.49-1.16ZM192.28,108.05c-7.65.75-18.85,4.56-20.58,13.24-.99,4.96-1.38,16.35-.87,21.39,2.23,22.03,46.19,19.55,51.08,2.12,1.55-5.52,1.34-21.77-.82-27.12-3.98-9.85-19.94-10.5-28.8-9.63Z"/><path class="cls-2" d="M286.76,122.93c6.2-2.29,7.71-12.48,12.7-15.72,4.35-2.82,11.34-1.28,16.13-.47,1.09.86.43.79.1,1.57-2.06,4.85-7.98,14.17-12,17.5-1.48,1.22-3.7.93-3.24,2.86,10.13,4.27,15.93,15.23,19.44,25.16-4.52.36-10.17,2.18-14.6,1.28-6.34-1.3-6.16-9.53-9.16-13.85-2.15-3.1-6.36-5.49-10.09-6.1v20.12c-4.3-.03-10.22.59-13.87-2.13-.3-.23-1.97-2.38-1.97-2.54v-65.76c2.79-.86,16.56,1.29,16.56,4.67v33.42Z"/><path class="cls-2" d="M192.28,108.05c8.87-.87,24.83-.21,28.8,9.63,2.16,5.35,2.37,21.6.82,27.12-4.88,17.43-48.85,19.91-51.08-2.12-.51-5.05-.12-16.43.87-21.39,1.73-8.68,12.93-12.5,20.58-13.24ZM195.11,118.79c-4.19.71-6.56,2.34-7.01,6.66-.52,5.02-1.63,21.43,5.39,21.99.99.08,8.29-.84,9-1.15.66-.29,2.06-2,2.34-2.69.8-1.99,1-20.42.19-22.1-1.35-2.78-7.22-3.15-9.92-2.7Z"/><path class="cls-2" d="M368.86,154.56c-3.35-.36-6.26-2-9.7-2.18-10.37-.56-24.94,6.32-34.16-2.56-.66-.64-3.67-5.25-3.67-5.68v-38.45c3.86-.58,14.25.66,16.03,4.48,2.63,5.62-1.62,26.15,1.21,30.95,1.88,3.19,10.61,2.18,13.72,1.22v-37.37c3.34-1.03,16.56,1.07,16.56,5.39v44.2Z"/><path class="cls-2" d="M162.9,102.81v56.06c-5.82-.11-13.08.02-16.91-5.05l-.37-50.3c-10.33-.19-21.61,1.22-20.16-12.93,2.86.45,6.11,1.31,8.97,1.46,15.95.85,33.63.24,49.35-2.19,1.91,4.11-3.53,12.94-7.55,12.94h-13.32Z"/><path class="cls-2" d="M226.99,107.12c11.68,4.96,22.83-4.33,34.49,1.16,7.55,3.56,4.34,13.92-1.01,18.24-2.58-7.6-8.67-9.78-16.2-7.9v38.09c-2.65,1.07-17.28-1.54-17.28-4.67v-44.92Z"/><path class="cls-1" d="M195.11,118.79c2.69-.46,8.57-.09,9.92,2.7.81,1.68.6,20.1-.19,22.1-.28.7-1.69,2.41-2.34,2.69-.71.31-8.01,1.23-9,1.15-7.02-.56-5.91-16.97-5.39-21.99.45-4.31,2.82-5.95,7.01-6.66Z"/></svg>